<svg xmlns="http://www.w3.org/2000/svg" xmlns:xlink="http://www.w3.org/1999/xlink" width="500" zoomAndPan="magnify" viewBox="0 0 375 374.999991" height="500" preserveAspectRatio="xMidYMid meet" version="1.0"><defs><clipPath id="9182d7963e"><path d="M 191.859375 204.398438 L 262.390625 204.398438 L 262.390625 264.027344 L 191.859375 264.027344 Z M 191.859375 204.398438 " clip-rule="nonzero"/></clipPath><clipPath id="ab004bf9af"><path d="M 111 111 L 300.042969 111 L 300.042969 299.949219 L 111 299.949219 Z M 111 111 " clip-rule="nonzero"/></clipPath><clipPath id="4332654e5b"><path d="M 75.042969 74.949219 L 264 74.949219 L 264 264 L 75.042969 264 Z M 75.042969 74.949219 " clip-rule="nonzero"/></clipPath></defs><g clip-path="url(#9182d7963e)"><path fill="#42858c" d="M 191.859375 204.398438 L 262.4375 204.398438 L 262.4375 264.027344 L 191.859375 264.027344 Z M 191.859375 204.398438 " fill-opacity="1" fill-rule="nonzero"/></g><g clip-path="url(#ab004bf9af)"><path fill="#42858c" d="M 187.496094 300.042969 C 217.566406 300.042969 245.703125 288.261719 266.980469 267.15625 C 288.261719 245.703125 300.042969 217.566406 300.042969 187.496094 C 300.042969 159.183594 289.667969 132.628906 270.675781 111.878906 L 111.703125 270.675781 C 132.453125 289.667969 159.183594 300.042969 187.496094 300.042969 Z M 187.496094 300.042969 " fill-opacity="1" fill-rule="nonzero"/></g><g clip-path="url(#4332654e5b)"><path fill="#42858c" d="M 187.496094 74.949219 C 157.425781 74.949219 129.289062 86.730469 108.007812 107.832031 C 86.730469 129.289062 74.949219 157.425781 74.949219 187.496094 C 74.949219 215.808594 85.324219 242.363281 104.316406 263.113281 L 263.289062 104.316406 C 242.539062 85.324219 215.808594 74.949219 187.496094 74.949219 Z M 187.496094 74.949219 " fill-opacity="1" fill-rule="nonzero"/></g></svg>